# xmcd CD database file
#
# Track frame offsets:
#	150
#	19842
#	39492
#	59812
#	83992
#	116767
#
# Disc length: 1899 seconds
#
# Revision: 0
# Processed by: cddbd v1.5.2PL0 Copyright (c) Steve Scherf et al.
# Submitted via: CDex 1.70beta2
#
DISCID=4f076906
DTITLE=Mike Urbaniak and VA - Urbanator (Chameleon - Jazz with Attitude)
DYEAR=1994
DGENRE=Jazz
TTITLE0=Mutiny Remix Edit
TTITLE1=Mutiny Remix Instrumental Edit
TTITLE2=Album Version Edit
TTITLE3=Album Version
TTITLE4=Mutiny Remix Extended
TTITLE5=Mutiny Remix Instrumental Extended
EXTD=YEAR: 1994
EXTT0=
EXTT1=
EXTT2=
EXTT3=
EXTT4=
EXTT5=
PLAYORDER=
